<?xml version="1.0" encoding="iso-8859-1"?>
<svg fill="#339AF0" version="1.1" id="Capa_1" xmlns="http://www.w3.org/2000/svg" xmlns:xlink="http://www.w3.org/1999/xlink" 
	 width="60px" height="60px" viewBox="0 0 70.074 70.074"
	 xml:space="preserve">
<g>
	<g>
		<path d="M39.987,48.047c-0.352,0.165-0.744,0.244-1.178,0.244c-0.337,0-1.044-0.157-2.126-0.483
			c-1.076-0.324-1.945-0.488-2.602-0.488c-0.584,0-1.182,0.096-1.793,0.283c-0.615,0.188-1.232,0.438-1.86,0.757
			c1.163-0.871,2.021-1.756,2.572-2.646c0.544-0.89,0.825-1.788,0.825-2.701c0-0.253-0.023-0.502-0.061-0.736
			c-0.04-0.235-0.109-0.565-0.198-0.981h3.867v-1.423h-4.486c-0.661-1.287-1.098-2.184-1.306-2.681
			c-0.206-0.502-0.308-0.989-0.308-1.46c0-0.958,0.332-1.773,0.985-2.444c0.657-0.668,1.621-1.007,2.899-1.007
			c1.313,0,2.288,0.36,2.931,1.072c0.644,0.72,0.967,1.765,0.967,3.146h2.527c-0.027-2.036-0.561-3.607-1.605-4.722
			s-2.582-1.665-4.617-1.665c-2.164,0-3.824,0.558-4.978,1.689c-1.159,1.126-1.738,2.399-1.738,3.822
			c0,0.401,0.033,0.775,0.096,1.127c0.062,0.347,0.143,0.657,0.234,0.926c0.1,0.283,0.306,0.729,0.611,1.347
			c0.307,0.615,0.456,0.898,0.456,0.853h-2.147v1.424h3.023c0.172,0.424,0.296,0.762,0.366,1.008
			c0.122,0.393,0.178,0.734,0.178,1.026c0,1.022-0.313,1.967-0.942,2.838c-0.627,0.871-1.46,1.665-2.485,2.386l1.35,1.939
			c0.575-0.347,1.045-0.596,1.411-0.734c0.622-0.237,1.277-0.356,1.972-0.356c0.747,0,1.766,0.215,3.057,0.635
			c1.291,0.422,2.214,0.627,2.759,0.627c0.741,0,1.455-0.157,2.117-0.475c0.401-0.2,0.854-0.506,1.368-0.919l-1.136-1.846
			C40.539,47.741,40.206,47.947,39.987,48.047z"/>
		<path d="M35.037,5.202L0,30.671h8.353l0.441-0.322v34.522H61.27V30.35l0.447,0.322h8.357L35.037,5.202z M35.037,55.427
			c-8.309,0-15.038-6.734-15.038-15.037c0-8.305,6.729-15.039,15.038-15.039c8.308,0,15.037,6.734,15.037,15.039
			C50.074,48.692,43.345,55.427,35.037,55.427z"/>
	</g>
</g>
</svg>